<svg width="606" height="575" viewBox="0 0 606 575" fill="none" xmlns="http://www.w3.org/2000/svg">
<g id="Books&#38;Shelf">
<g id="BookShelf">
<g id="Body">
<path d="M0 102.151H472.374V574.525H0V102.151Z" fill="#948E87"/>
<path d="M472.374 102.151V574.525L605.229 472.374V0L472.374 102.151Z" fill="#555350"/>
<path d="M0 102.151H472.374L605.229 0H132.855L0 102.151Z" fill="#33322F"/>
<path d="M474.874 103.382L602.729 5.07579V471.143L474.874 569.449V103.382ZM469.874 104.651V572.025H2.5V104.651H469.874ZM471.524 99.6509H7.3529L133.705 2.5H597.876L471.524 99.6509Z" stroke="#FFE500" stroke-width="5"/>
</g>
<g id="Face">
<path d="M25.9806 130.493H444.032V548.544H25.9806V130.493Z" fill="#242424"/>
<path d="M120.455 339.519H146.436V548.544H120.455V339.519Z" fill="#948E87"/>
<path d="M25.9806 314.719H444.032V339.519H25.9806V314.719Z" fill="#948E87"/>
<path d="M350.738 130.493H379.08V314.719H350.738V130.493Z" fill="#948E87"/>
</g>
</g>
<g id="Books">
<g id="GreenBook1">
<path d="M188.95 130.493H270.434V314.719H188.95V130.493Z" fill="#265117"/>
<path d="M188.95 222.606H270.434V246.225H188.95V222.606Z" fill="#FFE500"/>
</g>
<g id="GreenBook2">
<path d="M392.07 339.519H444.032V548.544H392.07V339.519Z" fill="#265117"/>
<path d="M392.07 444.032H444.032V470.83H392.07V444.032Z" fill="#FFE500"/>
</g>
<g id="RedBook1">
<path d="M270.434 130.493H351.919V314.719H270.434V130.493Z" fill="#952D16"/>
<path d="M270.434 174.188H351.919V197.807H270.434V174.188Z" fill="#FFE500"/>
</g>
<g id="RedBook2">
<path d="M310.586 339.519H392.07V548.544H310.586V339.519Z" fill="#952D16"/>
<path d="M310.586 389.095H392.07V415.894H310.586V389.095Z" fill="#FFE500"/>
</g>
<g id="BlueBook1">
<path d="M107.465 130.493H188.95V314.719H107.465V130.493Z" fill="#1B6AA2"/>
<path d="M107.465 191.902H188.95V215.521H107.465V191.902Z" fill="#FFE500"/>
</g>
<g id="BlueBook2">
<path d="M146.436 339.519H229.101V549.13H146.436V339.519Z" fill="#1B6AA2"/>
<path d="M146.436 419.227H229.101V446.101H146.436V419.227Z" fill="#FFE500"/>
</g>
<g id="OrangeBook1">
<path d="M25.9806 130.493H107.465V314.719H25.9806V130.493Z" fill="#A24C1B"/>
<path d="M25.9806 150.569H107.465V174.188H25.9806V150.569Z" fill="#FFE500"/>
</g>
<g id="OrangeBook2">
<path d="M229.101 339.519H310.586V548.544H229.101V339.519Z" fill="#A24C1B"/>
<path d="M229.101 362.297H310.586V389.095H229.101V362.297Z" fill="#FFE500"/>
</g>
<g id="WhiteBook1">
<path d="M379.08 130.493H444.032V314.719H379.08V130.493Z" fill="#FBF5F5"/>
<path d="M379.08 261.577H444.032V288.739H379.08V261.577Z" fill="#FFE500"/>
<path d="M379.08 151.75H444.032V178.912H379.08V151.75Z" fill="#FFE500"/>
</g>
<g id="BlackBook1">
<path d="M25.9806 339.519H120.455V548.544H25.9806V339.519Z" fill="#1E1E1E"/>
<path d="M25.9806 494.221H120.455V521.383H25.9806V494.221Z" fill="#FFE500"/>
<path d="M25.9806 365.499H120.455V392.661H25.9806V365.499Z" fill="#FFE500"/>
<path d="M37.7899 494.221H67.3133V521.383H37.7899V494.221Z" fill="#D40F85"/>
<path d="M37.7899 494.221H67.3133V521.383H37.7899V494.221Z" fill="#D40F85"/>
<path d="M37.7899 365.499H67.3133V392.661H37.7899V365.499Z" fill="#D40F85"/>
</g>
</g>
</g>
</svg>
